Coordinates
version=1
nRows=14
nColumns=24
inDegrees=yes

Units are S.I. units (second, meters, Newtons, ...)
Angles are in degrees.

endheader
time	pelvis_tilt	pelvis_list	pelvis_rotation	pelvis_tx	pelvis_ty	pelvis_tz	hip_flexion_r	hip_adduction_r	hip_rotation_r	knee_angle_r	ankle_angle_r	subtalar_angle_r	mtp_angle_r	hip_flexion_l	hip_adduction_l	hip_rotation_l	knee_angle_l	ankle_angle_l	subtalar_angle_l	mtp_angle_l	lumbar_extension	lumbar_bending	lumbar_rotation
      1.39000000	     -9.19841453	     -3.39630493	      0.51022991	     -0.47473346	      1.21931312	     -0.85296384	     -4.82528012	     10.83267137	      5.13173003	    -10.16891633	      9.24194207	     -3.92072461	      6.25969372	     33.06124280	      4.66852037	      9.75912946	     -7.31064576	     -0.57944193	     -4.37333794	      8.32310056	     -3.30581417	      4.83655438	      3.62339908
      1.39500000	     -9.19500085	     -3.43393062	      0.40262169	     -0.46837597	      1.21886876	     -0.85278574	     -4.82521315	     10.84125862	      5.16348566	    -11.07701357	      9.34463173	     -3.32319496	      6.88995564	     33.11101846	      4.71750277	      9.79386389	     -7.99845328	     -1.07993394	     -4.52334249	      8.35144676	     -3.26338485	      4.76859902	      3.59339863
      1.40000000	     -9.12052556	     -3.45078935	      0.37056452	     -0.46194567	      1.21852577	     -0.85269286	     -4.89015327	     10.81579772	      4.99037541	    -11.99045786	      9.38032430	     -2.65269724	      7.79940143	     33.10088058	      4.83235302	      9.90533538	     -8.76927501	     -1.72034109	     -4.86531394	      8.48542661	     -3.28663140	      4.66518936	      3.45881613
      1.40500000	     -9.10028673	     -3.44071697	      0.26455681	     -0.45550687	      1.21824085	     -0.85247527	     -4.81232639	     10.77006509	      4.94839384	    -13.05145973	      9.38890623	     -2.04962262	      8.57568689	     33.15050071	      4.91935485	      9.90433827	     -9.58417289	     -2.45044159	     -5.14667794	      8.56422695	     -3.25852843	      4.52349212	      3.41757465
      1.41000000	     -9.02987782	     -3.41804904	      0.24142404	     -0.44900900	      1.21803678	     -0.85239359	     -4.75323957	     10.69230326	      4.66559910	    -14.15472772	      9.36061490	     -1.30803967	      9.62345589	     33.16451252	      5.07147764	     10.01402149	    -10.46575875	     -3.26428051	     -5.57964796	      8.66137784	     -3.27423407	      4.36449805	      3.28499058
      1.41500000	     -8.89363616	     -3.37944009	      0.24911584	     -0.44246981	      1.21797403	     -0.85233649	     -4.74167815	     10.59154659	      4.31925149	    -15.27824135	      9.23605744	     -0.61783054	     10.84398584	     33.09420058	      5.24746474	     10.15938669	    -11.35244774	     -4.14714668	     -6.12741896	      8.81394731	     -3.35374078	      4.17510721	      3.13608454
      1.42000000	     -8.83415453	     -3.32212761	      0.19982635	     -0.43594667	      1.21792361	     -0.85220189	     -4.52353883	     10.47395599	      4.00913283	    -16.61241373	      9.10339568	      0.07991802	     11.86890206	     33.13807306	      5.39919834	     10.19591699	    -12.31905589	     -4.96654021	     -6.47193966	      8.84138136	     -3.36155539	      3.96509777	      3.07318656
      1.42500000	     -8.71577847	     -3.24288901	      0.21726321	     -0.42934585	      1.21799778	     -0.85216488	     -4.33014007	     10.31038424	      3.50554514	    -17.99068704	      8.88484698	      0.84117956	     13.14515638	     33.10217789	      5.60653826	     10.30127769	    -13.28582474	     -5.79710790	     -6.89350733	      8.84978329	     -3.41880239	      3.72430803	      2.93634175
      1.43000000	     -8.60014402	     -3.14778445	      0.23308718	     -0.42272842	      1.21815115	     -0.85210612	     -4.05605294	     10.12397380	      2.97064949	    -19.48532721	      8.56818330	      1.54479984	     14.40590773	     33.05978504	      5.81601746	     10.38173042	    -14.25597063	     -6.56420189	     -7.23387279	      8.84047728	     -3.47555854	      3.45842110	      2.80492997
      1.43500000	     -8.39635178	     -3.03521968	      0.28865157	     -0.41607169	      1.21845681	     -0.85212068	     -3.84214942	      9.89399406	      2.32358531	    -21.01041279	      8.15168238	      2.21325613	     15.96624734	     32.90018730	      6.06357414	     10.49594979	    -15.21871697	     -7.25458973	     -7.67673245	      8.82314806	     -3.62215008	      3.17231124	      2.65630614
      1.44000000	     -8.27849817	     -2.91604694	      0.33451135	     -0.40944416	      1.21872586	     -0.85214201	     -3.40355431	      9.64224426	      1.62703578	    -22.75195554	      7.69246428	      2.89583202	     17.19057912	     32.85920573	      6.30967699	     10.57976044	    -16.23904674	     -7.81336085	     -7.88651798	      8.76987107	     -3.67960871	      2.88023652	      2.57518845
      1.44500000	     -8.09417212	     -2.75274575	      0.39881910	     -0.40272476	      1.21916628	     -0.85217648	     -2.99973414	      9.31325079	      0.86367753	    -24.52617778	      7.06730443	      3.52002510	     18.77846687	     32.64396261	      6.59595140	     10.68628904	    -17.10555630	     -8.32005394	     -8.17388483	      8.66330571	     -3.79949145	      2.54202572	      2.41037376
      1.45000000	     -7.97231362	     -2.58536032	      0.47446590	     -0.39606293	      1.21953046	     -0.85226171	     -2.41121404	      8.95297855	      0.03517650	    -26.48735189	      6.37478539	      4.12367396	     19.92349235	     32.53755895	      6.90183996	     10.78920477	    -18.05701710	     -8.64734612	     -8.30995286	      8.59738875	     -3.85543578	      2.20402993	      2.31737817
      1.45500000	     -7.80272952	     -2.36648564	      0.55480835	     -0.38933448	      1.22003632	     -0.85234977	     -1.83884376	      8.50306927	     -0.81124514	    -28.46594161	      5.50457799	      4.64903153	     21.39823418	     32.26320675	      7.24885319	     10.90677072	    -18.82492334	     -8.92879860	     -8.52344253	      8.45534357	     -3.95944738	      1.81620633	      2.16953630
